<mxfile host="app.diagrams.net" modified="2024-02-18T13:38:46.318Z" agent="Mozilla/5.0 (Windows NT 10.0; Win64; x64) AppleWebKit/537.36 (KHTML, like Gecko) Chrome/121.0.0.0 Safari/537.36" etag="_KRLyhSh28wbQhOg2foa" version="23.1.5" type="onedrive">
  <diagram name="Page-1" id="4CdrQVm8jYFuwyL9zd44">
    <mxGraphModel grid="0" page="0" gridSize="10" guides="1" tooltips="1" connect="1" arrows="1" fold="1" pageScale="1" pageWidth="827" pageHeight="1169" math="0" shadow="0">
      <root>
        <mxCell id="0" />
        <mxCell id="1" parent="0" />
        <mxCell id="VaRuEsrkNS8Mne5Qsf1U-1" value="Chat Client" style="rounded=1;whiteSpace=wrap;html=1;fontSize=16;" vertex="1" parent="1">
          <mxGeometry x="153" y="38" width="120" height="60" as="geometry" />
        </mxCell>
        <mxCell id="VaRuEsrkNS8Mne5Qsf1U-3" value="" style="endArrow=none;html=1;rounded=0;fontSize=12;startSize=8;endSize=8;curved=1;" edge="1" parent="1">
          <mxGeometry width="50" height="50" relative="1" as="geometry">
            <mxPoint x="274" y="68" as="sourcePoint" />
            <mxPoint x="314" y="68" as="targetPoint" />
          </mxGeometry>
        </mxCell>
        <mxCell id="VaRuEsrkNS8Mne5Qsf1U-7" value="" style="edgeStyle=none;curved=1;rounded=0;orthogonalLoop=1;jettySize=auto;html=1;fontSize=12;startSize=8;endSize=8;" edge="1" parent="1" source="VaRuEsrkNS8Mne5Qsf1U-4" target="VaRuEsrkNS8Mne5Qsf1U-6">
          <mxGeometry relative="1" as="geometry" />
        </mxCell>
        <mxCell id="VaRuEsrkNS8Mne5Qsf1U-4" value="1" style="ellipse;whiteSpace=wrap;html=1;aspect=fixed;fontSize=16;" vertex="1" parent="1">
          <mxGeometry x="315" y="57" width="22" height="22" as="geometry" />
        </mxCell>
        <mxCell id="VaRuEsrkNS8Mne5Qsf1U-5" style="edgeStyle=none;curved=1;rounded=0;orthogonalLoop=1;jettySize=auto;html=1;exitX=0.5;exitY=0;exitDx=0;exitDy=0;fontSize=12;startSize=8;endSize=8;" edge="1" parent="1" source="VaRuEsrkNS8Mne5Qsf1U-4" target="VaRuEsrkNS8Mne5Qsf1U-4">
          <mxGeometry relative="1" as="geometry" />
        </mxCell>
        <mxCell id="VaRuEsrkNS8Mne5Qsf1U-6" value="Chat Bot" style="rounded=1;whiteSpace=wrap;html=1;fontSize=16;" vertex="1" parent="1">
          <mxGeometry x="497" y="35" width="120" height="60" as="geometry" />
        </mxCell>
        <mxCell id="VaRuEsrkNS8Mne5Qsf1U-8" value="" style="shape=waypoint;sketch=0;size=6;pointerEvents=1;points=[];fillColor=default;resizable=0;rotatable=0;perimeter=centerPerimeter;snapToPoint=1;fontSize=16;rounded=1;" vertex="1" parent="1">
          <mxGeometry x="458" y="-122" width="20" height="20" as="geometry" />
        </mxCell>
        <mxCell id="VaRuEsrkNS8Mne5Qsf1U-10" value="" style="shape=waypoint;sketch=0;size=6;pointerEvents=1;points=[];fillColor=default;resizable=0;rotatable=0;perimeter=centerPerimeter;snapToPoint=1;fontSize=16;rounded=1;" vertex="1" parent="1">
          <mxGeometry x="318" y="-122" width="20" height="20" as="geometry" />
        </mxCell>
        <mxCell id="VaRuEsrkNS8Mne5Qsf1U-13" value="User types a phrase in the chat client" style="text;strokeColor=none;fillColor=none;html=1;align=center;verticalAlign=middle;whiteSpace=wrap;rounded=0;fontSize=16;" vertex="1" parent="1">
          <mxGeometry x="345" y="-4" width="122" height="75" as="geometry" />
        </mxCell>
        <mxCell id="VaRuEsrkNS8Mne5Qsf1U-14" value="" style="endArrow=none;html=1;rounded=0;fontSize=12;startSize=8;endSize=8;curved=1;" edge="1" parent="1">
          <mxGeometry width="50" height="50" relative="1" as="geometry">
            <mxPoint x="557" y="35" as="sourcePoint" />
            <mxPoint x="555" y="-63" as="targetPoint" />
          </mxGeometry>
        </mxCell>
        <mxCell id="VaRuEsrkNS8Mne5Qsf1U-15" value="" style="endArrow=none;html=1;rounded=0;fontSize=12;startSize=8;endSize=8;curved=1;" edge="1" parent="1" source="_ZkR3XV_JBUDLvnxBUN0-4">
          <mxGeometry width="50" height="50" relative="1" as="geometry">
            <mxPoint x="208" y="-64" as="sourcePoint" />
            <mxPoint x="555" y="-64" as="targetPoint" />
          </mxGeometry>
        </mxCell>
        <mxCell id="VaRuEsrkNS8Mne5Qsf1U-16" value="" style="endArrow=classic;html=1;rounded=0;fontSize=12;startSize=8;endSize=8;curved=1;" edge="1" parent="1">
          <mxGeometry width="50" height="50" relative="1" as="geometry">
            <mxPoint x="209" y="-65" as="sourcePoint" />
            <mxPoint x="209" y="35" as="targetPoint" />
          </mxGeometry>
        </mxCell>
        <mxCell id="_ZkR3XV_JBUDLvnxBUN0-1" value="" style="endArrow=none;html=1;rounded=0;" edge="1" parent="1">
          <mxGeometry width="50" height="50" relative="1" as="geometry">
            <mxPoint x="564" y="96" as="sourcePoint" />
            <mxPoint x="564" y="145" as="targetPoint" />
          </mxGeometry>
        </mxCell>
        <mxCell id="_ZkR3XV_JBUDLvnxBUN0-2" value="2" style="ellipse;whiteSpace=wrap;html=1;aspect=fixed;" vertex="1" parent="1">
          <mxGeometry x="551" y="146" width="24" height="24" as="geometry" />
        </mxCell>
        <mxCell id="_ZkR3XV_JBUDLvnxBUN0-5" value="" style="endArrow=none;html=1;rounded=0;fontSize=12;startSize=8;endSize=8;curved=1;" edge="1" parent="1" target="_ZkR3XV_JBUDLvnxBUN0-4">
          <mxGeometry width="50" height="50" relative="1" as="geometry">
            <mxPoint x="208" y="-64" as="sourcePoint" />
            <mxPoint x="555" y="-64" as="targetPoint" />
          </mxGeometry>
        </mxCell>
        <mxCell id="_ZkR3XV_JBUDLvnxBUN0-4" value="6" style="ellipse;whiteSpace=wrap;html=1;aspect=fixed;" vertex="1" parent="1">
          <mxGeometry x="365" y="-78" width="29" height="29" as="geometry" />
        </mxCell>
        <mxCell id="WbcdMR_LXcLzU2Nlki_K-1" value="&lt;font style=&quot;font-size: 18px;&quot;&gt;Chatbot packages data into proper response for display by the chat client.&lt;/font&gt;" style="text;strokeColor=none;fillColor=none;html=1;align=center;verticalAlign=middle;whiteSpace=wrap;rounded=0;fontSize=16;" vertex="1" parent="1">
          <mxGeometry x="279" y="-163" width="202" height="75" as="geometry" />
        </mxCell>
        <mxCell id="WbcdMR_LXcLzU2Nlki_K-2" value="" style="endArrow=none;html=1;rounded=0;" edge="1" parent="1">
          <mxGeometry width="50" height="50" relative="1" as="geometry">
            <mxPoint x="565" y="226" as="sourcePoint" />
            <mxPoint x="565" y="172" as="targetPoint" />
            <Array as="points" />
          </mxGeometry>
        </mxCell>
        <mxCell id="WbcdMR_LXcLzU2Nlki_K-4" value="&lt;font style=&quot;font-size: 14px;&quot;&gt;Natural Language Processing&lt;/font&gt;" style="rounded=1;whiteSpace=wrap;html=1;" vertex="1" parent="1">
          <mxGeometry x="511" y="230" width="120" height="60" as="geometry" />
        </mxCell>
        <mxCell id="WbcdMR_LXcLzU2Nlki_K-5" value="" style="endArrow=none;html=1;rounded=0;" edge="1" parent="1">
          <mxGeometry width="50" height="50" relative="1" as="geometry">
            <mxPoint x="572" y="366" as="sourcePoint" />
            <mxPoint x="572" y="292" as="targetPoint" />
          </mxGeometry>
        </mxCell>
        <mxCell id="WbcdMR_LXcLzU2Nlki_K-6" value="" style="endArrow=none;html=1;rounded=0;" edge="1" parent="1">
          <mxGeometry width="50" height="50" relative="1" as="geometry">
            <mxPoint x="569" y="363" as="sourcePoint" />
            <mxPoint x="781" y="368" as="targetPoint" />
          </mxGeometry>
        </mxCell>
        <mxCell id="WbcdMR_LXcLzU2Nlki_K-9" value="" style="endArrow=none;html=1;rounded=0;" edge="1" parent="1">
          <mxGeometry width="50" height="50" relative="1" as="geometry">
            <mxPoint x="782" y="367" as="sourcePoint" />
            <mxPoint x="777" y="66" as="targetPoint" />
          </mxGeometry>
        </mxCell>
        <mxCell id="WbcdMR_LXcLzU2Nlki_K-11" value="3" style="ellipse;whiteSpace=wrap;html=1;aspect=fixed;" vertex="1" parent="1">
          <mxGeometry x="624" y="350" width="24" height="24" as="geometry" />
        </mxCell>
        <mxCell id="WbcdMR_LXcLzU2Nlki_K-12" value="Chatbot sends the phrase to a machine learning NLP engine&lt;br&gt;It uses Supervised Machine learning by incorporating decision tree classifier" style="text;strokeColor=none;fillColor=none;html=1;align=center;verticalAlign=middle;whiteSpace=wrap;rounded=0;fontSize=16;" vertex="1" parent="1">
          <mxGeometry x="587" y="105" width="186" height="127" as="geometry" />
        </mxCell>
        <mxCell id="WbcdMR_LXcLzU2Nlki_K-13" value="" style="endArrow=classic;html=1;rounded=0;entryX=1;entryY=0.5;entryDx=0;entryDy=0;" edge="1" parent="1" target="VaRuEsrkNS8Mne5Qsf1U-6">
          <mxGeometry width="50" height="50" relative="1" as="geometry">
            <mxPoint x="776" y="65" as="sourcePoint" />
            <mxPoint x="664" y="-20" as="targetPoint" />
          </mxGeometry>
        </mxCell>
        <mxCell id="WbcdMR_LXcLzU2Nlki_K-14" value="" style="endArrow=classic;html=1;rounded=0;entryX=1;entryY=0.25;entryDx=0;entryDy=0;" edge="1" parent="1" target="VaRuEsrkNS8Mne5Qsf1U-6">
          <mxGeometry width="50" height="50" relative="1" as="geometry">
            <mxPoint x="892" y="50" as="sourcePoint" />
            <mxPoint x="851" y="35" as="targetPoint" />
          </mxGeometry>
        </mxCell>
        <mxCell id="WbcdMR_LXcLzU2Nlki_K-15" value="" style="endArrow=none;html=1;rounded=0;" edge="1" parent="1" source="WbcdMR_LXcLzU2Nlki_K-17">
          <mxGeometry width="50" height="50" relative="1" as="geometry">
            <mxPoint x="897" y="536" as="sourcePoint" />
            <mxPoint x="889" y="52" as="targetPoint" />
          </mxGeometry>
        </mxCell>
        <mxCell id="WbcdMR_LXcLzU2Nlki_K-16" value="" style="endArrow=none;html=1;rounded=0;" edge="1" parent="1">
          <mxGeometry width="50" height="50" relative="1" as="geometry">
            <mxPoint x="407" y="535" as="sourcePoint" />
            <mxPoint x="897" y="535" as="targetPoint" />
          </mxGeometry>
        </mxCell>
        <mxCell id="WbcdMR_LXcLzU2Nlki_K-18" value="" style="endArrow=none;html=1;rounded=0;" edge="1" parent="1" target="WbcdMR_LXcLzU2Nlki_K-17">
          <mxGeometry width="50" height="50" relative="1" as="geometry">
            <mxPoint x="897" y="536" as="sourcePoint" />
            <mxPoint x="889" y="52" as="targetPoint" />
          </mxGeometry>
        </mxCell>
        <mxCell id="WbcdMR_LXcLzU2Nlki_K-17" value="5" style="ellipse;whiteSpace=wrap;html=1;aspect=fixed;" vertex="1" parent="1">
          <mxGeometry x="881" y="253" width="30" height="30" as="geometry" />
        </mxCell>
        <mxCell id="WbcdMR_LXcLzU2Nlki_K-19" value="&lt;font style=&quot;font-size: 18px;&quot;&gt;Data is returned to chatbot&lt;/font&gt;" style="text;strokeColor=none;fillColor=none;html=1;align=center;verticalAlign=middle;whiteSpace=wrap;rounded=0;fontSize=16;" vertex="1" parent="1">
          <mxGeometry x="918" y="234" width="141" height="75" as="geometry" />
        </mxCell>
        <mxCell id="WbcdMR_LXcLzU2Nlki_K-20" value="" style="endArrow=none;html=1;rounded=0;" edge="1" parent="1">
          <mxGeometry width="50" height="50" relative="1" as="geometry">
            <mxPoint x="408" y="534" as="sourcePoint" />
            <mxPoint x="408" y="416" as="targetPoint" />
          </mxGeometry>
        </mxCell>
        <mxCell id="WbcdMR_LXcLzU2Nlki_K-21" value="&lt;font style=&quot;font-size: 18px;&quot;&gt;Data Services&lt;/font&gt;" style="rounded=1;whiteSpace=wrap;html=1;" vertex="1" parent="1">
          <mxGeometry x="347" y="356" width="120" height="60" as="geometry" />
        </mxCell>
        <mxCell id="WbcdMR_LXcLzU2Nlki_K-23" value="" style="endArrow=none;html=1;rounded=0;" edge="1" parent="1">
          <mxGeometry width="50" height="50" relative="1" as="geometry">
            <mxPoint x="400" y="79" as="sourcePoint" />
            <mxPoint x="493" y="79" as="targetPoint" />
          </mxGeometry>
        </mxCell>
        <mxCell id="WbcdMR_LXcLzU2Nlki_K-24" value="" style="endArrow=classic;html=1;rounded=0;" edge="1" parent="1" source="WbcdMR_LXcLzU2Nlki_K-25">
          <mxGeometry width="50" height="50" relative="1" as="geometry">
            <mxPoint x="403.5" y="84" as="sourcePoint" />
            <mxPoint x="408.5" y="356" as="targetPoint" />
          </mxGeometry>
        </mxCell>
        <mxCell id="WbcdMR_LXcLzU2Nlki_K-26" value="" style="endArrow=classic;html=1;rounded=0;" edge="1" parent="1" target="WbcdMR_LXcLzU2Nlki_K-25">
          <mxGeometry width="50" height="50" relative="1" as="geometry">
            <mxPoint x="403.5" y="84" as="sourcePoint" />
            <mxPoint x="408.5" y="356" as="targetPoint" />
          </mxGeometry>
        </mxCell>
        <mxCell id="WbcdMR_LXcLzU2Nlki_K-25" value="4" style="ellipse;whiteSpace=wrap;html=1;aspect=fixed;" vertex="1" parent="1">
          <mxGeometry x="390.5" y="234" width="33" height="33" as="geometry" />
        </mxCell>
        <mxCell id="WbcdMR_LXcLzU2Nlki_K-27" value="&lt;font style=&quot;font-size: 18px;&quot;&gt;Intent is used to call upon proper service, using entity information to find proper data.&lt;/font&gt;" style="text;strokeColor=none;fillColor=none;html=1;align=center;verticalAlign=middle;whiteSpace=wrap;rounded=0;fontSize=16;" vertex="1" parent="1">
          <mxGeometry x="151" y="225" width="229" height="75" as="geometry" />
        </mxCell>
        <mxCell id="WbcdMR_LXcLzU2Nlki_K-28" value="&lt;span style=&quot;font-size: 18px;&quot;&gt;NLP engines extracts users intent and entities from given phrase and sends back to chatbot&lt;/span&gt;" style="text;strokeColor=none;fillColor=none;html=1;align=center;verticalAlign=middle;whiteSpace=wrap;rounded=0;fontSize=16;" vertex="1" parent="1">
          <mxGeometry x="640" y="398" width="229" height="75" as="geometry" />
        </mxCell>
      </root>
    </mxGraphModel>
  </diagram>
</mxfile>
